<?xml version="1.0" encoding="UTF-8" standalone="no"?>
<!-- Created with Inkscape (http://www.inkscape.org/) -->

<svg
   xmlns:dc="http://purl.org/dc/elements/1.1/"
   xmlns:cc="http://creativecommons.org/ns#"
   xmlns:rdf="http://www.w3.org/1999/02/22-rdf-syntax-ns#"
   xmlns:svg="http://www.w3.org/2000/svg"
   xmlns="http://www.w3.org/2000/svg"
   xmlns:xlink="http://www.w3.org/1999/xlink"
   xmlns:sodipodi="http://sodipodi.sourceforge.net/DTD/sodipodi-0.dtd"
   xmlns:inkscape="http://www.inkscape.org/namespaces/inkscape"
   width="1024"
   height="1024"
   id="svg2"
   version="1.1"
   inkscape:version="0.48.1 "
   sodipodi:docname="level3.svg">
  <defs
     id="defs4" />
  <sodipodi:namedview
     id="base"
     pagecolor="#ffffff"
     bordercolor="#666666"
     borderopacity="1.0"
     inkscape:pageopacity="0.0"
     inkscape:pageshadow="2"
     inkscape:zoom="1.979899"
     inkscape:cx="395.87748"
     inkscape:cy="762.33383"
     inkscape:document-units="px"
     inkscape:current-layer="layer1"
     showgrid="false"
     inkscape:window-width="1920"
     inkscape:window-height="1017"
     inkscape:window-x="-4"
     inkscape:window-y="-4"
     inkscape:window-maximized="1" />
  <metadata
     id="metadata7">
    <rdf:RDF>
      <cc:Work
         rdf:about="">
        <dc:format>image/svg+xml</dc:format>
        <dc:type
           rdf:resource="http://purl.org/dc/dcmitype/StillImage" />
      </cc:Work>
    </rdf:RDF>
  </metadata>
  <g
     inkscape:label="Layer 1"
     inkscape:groupmode="layer"
     id="layer1"
     transform="translate(0,-28.362183)">
    <rect
       style="fill:#008080;stroke:#ff0000;stroke-width:0.28183450999999998;stroke-miterlimit:49.50000000000000000;stroke-opacity:1;stroke-dasharray:none"
       id="rect3777"
       width="1023.7182"
       height="1023.7181"
       x="0.14091726"
       y="28.503078" />
    <image
       y="28.362183"
       x="0"
       id="image3774"
       xlink:href="file:///D:/Shared/level3.png"
       height="1024"
       width="1024" />
    <path
       style="fill:none;stroke:#000000;stroke-width:1px;stroke-linecap:butt;stroke-linejoin:miter;stroke-opacity:1"
       d="m 719.73369,1027.5355 -29.7995,-4.0406 -34.34519,-8.0812 -63.63961,-30.30457 -36.87057,-26.26397 -34.34518,-34.34519 -62.12438,-71.21575 -144.45182,19.1929 -6.56599,24.74874 -10.10153,39.39594 -37.37564,29.7995 -66.16499,2.02031 -58.08377,-4.04061 -43.436562,-36.87057 -12.626907,-26.76904 -1.515229,-46.97209 14.142136,-36.3655 25.253812,-24.74873 31.31473,-20.70813 49.49748,-6.56599 24.74873,5.05076 19.69798,13.63706 30.30457,-1.51523 57.5787,-10.6066 62.62946,-6.56599 42.93148,-7.07107 15.15229,-25.75889 57.07362,-44.44671 24.74873,-30.30458 -3.53553,-58.58885 -10.10153,-46.46701 -25.75889,-47.98225 -33.84011,-50.00255 -46.97209,29.29442 -21.2132,25.25382 -37.37565,31.8198 -37.88072,33.84011 -30.80965,27.7792 -26.76904,31.31473 -17.67767,17.17259 -20.20305,-5.05076 -26.26397,17.67767 -24.74874,10.10152 -29.7995,-6.06091 -25.25381,-12.62691 -27.779195,-14.64721 -30.809652,-30.30458 -2.525382,-15.15229 8.081221,-13.13198 0,-22.72843 9.596449,-12.12183 12.626907,-26.76904 35.860412,-9.59645 82.32744,-19.69798 44.44671,-15.65736 43.43656,-27.27412 42.93148,-25.25381 61.61931,-28.78935 -43.43656,-19.1929 -49.49748,-27.27412 -18.68782,-12.62691 -71.72083,0.50508 -48.9924,-3.53553 -29.7995,-15.65737 -31.81981,-25.75889 -17.677665,-38.89087 -6.565992,-37.37565 19.697975,-48.48732 31.819802,-28.28427 21.21321,-12.62691 36.36549,-2.52538 40.4061,4.54569 21.71828,4.04061 18.68782,14.64721 18.18275,16.16244 12.6269,24.74874 8.08123,24.24366 0.50507,18.18275 32.82996,-11.11168 33.84011,-29.29443 30.30458,-32.32488 32.32488,-25.75889 28.28427,-23.73858 35.86041,-19.1929 34.85027,-16.162441 36.36549,-7.071068 39.39595,-12.626906 33.33503,-17.67767 42.93148,-9.091373 52.02286,-3.030458 67.68022,0 83.84266,6.060916 45.96194,6.565991 42.93149,30.304577 12.12183,28.284271 3.53553,58.083771 -8.08122,58.08377 -23.73858,43.94164 -22.22336,28.78935 -32.82996,22.22335 -44.95179,18.18275 -4.54568,90.91373 -7.57615,36.36549 -19.69797,50.50762 -11.11168,27.27412 -12.62691,12.12183 -23.73858,47.47717 -37.88072,46.46702 -39.39595,39.39595 -48.9924,56.56854 -36.87057,34.34519 -36.87056,33.33503 -24.74874,24.24366 18.68782,20.70813 21.2132,41.92133 32.82996,22.22336 51.0127,20.20305 42.93149,11.61675 59.09392,4.54569 57.07362,-2.52538 26.26397,-21.71828 18.68782,-35.86042 1.51523,-52.52793 7.57614,-55.55839 -50.00255,2.52538 -41.92133,12.62691 26.26397,40.4061 8.08122,25.25381 -19.69798,42.93149 -54.04316,9.59645 -43.94163,-9.09138 -25.75889,-42.93148 -2.02031,-48.48732 18.18275,-43.43656 25.25381,-26.76904 41.92133,-21.21321 55.05331,-15.15228 61.61931,-6.566 47.47717,12.62691 33.84011,29.29442 10.6066,36.87057 -6.06091,62.12438 -16.16244,83.33759 -42.93149,57.57869 -28.28427,22.72844 -32.32488,22.22331 -21.71828,5.5559 z"
       id="path3779"
       inkscape:connector-curvature="0"
       transform="translate(0,28.362183)" />
    <path
       style="fill:none;stroke:#000000;stroke-width:1px;stroke-linecap:butt;stroke-linejoin:miter;stroke-opacity:1"
       d="m 621.74889,632.56589 53.03301,-59.599 55.55839,-63.63961 42.42641,-103.54064 0,-71.72083 -38.89088,4.54569 -75.25636,18.18274 -67.68022,31.31473 -52.52793,26.76904 40.4061,65.15484 26.26396,56.56855 11.11168,41.92133 z"
       id="path3781"
       inkscape:connector-curvature="0"
       transform="translate(0,28.362183)" />
    <path
       style="fill:none;stroke:#000000;stroke-width:1px;stroke-linecap:butt;stroke-linejoin:miter;stroke-opacity:1"
       d="m 772.7667,141.63175 -9.59645,103.54064 -69.19545,6.56599 -61.61931,20.20305 -70.71067,34.34519 -74.24622,38.89087 -95.96449,-56.56854 42.93148,-42.93149 50.50763,-46.97209 60.60915,-43.43656 71.21576,-19.1929 71.72083,-15.65736 61.61931,5.55584 z"
       id="path3783"
       inkscape:connector-curvature="0"
       transform="translate(0,28.362183)" />
    <path
       style="fill:none;stroke:#000000;stroke-width:1px;stroke-linecap:butt;stroke-linejoin:miter;stroke-opacity:1"
       d="m 863.17535,113.85256 24.24366,2.52538 21.21321,8.08122 -4.04062,46.46702 -17.67766,36.87056 -28.78935,29.29443 -9.59645,-47.47717 9.09137,-68.69038 z"
       id="path3785"
       inkscape:connector-curvature="0"
       transform="translate(0,28.362183)" />
  </g>
</svg>
